<svg width="14" height="16" viewBox="0 0 14 16" fill="none" xmlns="http://www.w3.org/2000/svg">
<path d="M12.4444 1.6H9.19333C8.86667 0.672 8.01111 0 7 0C5.98889 0 5.13333 0.672 4.80667 1.6H1.55556C0.7 1.6 0 2.32 0 3.2V14.4C0 15.28 0.7 16 1.55556 16H12.4444C13.3 16 14 15.28 14 14.4V3.2C14 2.32 13.3 1.6 12.4444 1.6ZM7 1.6C7.42778 1.6 7.77778 1.96 7.77778 2.4C7.77778 2.84 7.42778 3.2 7 3.2C6.57222 3.2 6.22222 2.84 6.22222 2.4C6.22222 1.96 6.57222 1.6 7 1.6ZM7 4.8C8.29111 4.8 9.33333 5.872 9.33333 7.2C9.33333 8.528 8.29111 9.6 7 9.6C5.70889 9.6 4.66667 8.528 4.66667 7.2C4.66667 5.872 5.70889 4.8 7 4.8ZM11.6667 14.4H2.33333V13.28C2.33333 11.68 5.44444 10.8 7 10.8C8.55556 10.8 11.6667 11.68 11.6667 13.28V14.4Z" fill="white"/>
</svg>
