<svg width="16" height="17" viewBox="0 0 16 17" fill="none" xmlns="http://www.w3.org/2000/svg">
<path d="M15.2776 13.3362L11.161 9.21964H10.3921L8.41921 11.1925V11.9615L12.5358 16.0781C12.8387 16.381 13.3281 16.381 13.631 16.0781L15.2776 14.4314C15.5806 14.1363 15.5806 13.6392 15.2776 13.3362Z" fill="white"/>
<path d="M11.9149 7.13804L13.01 6.04287L14.6567 7.68952C15.5654 6.78075 15.5654 5.30499 14.6567 4.39623L11.9071 1.64664L10.8119 2.74182V0.55147L10.2682 0L7.51864 2.74958L8.07011 3.30105H10.2682L9.17305 4.39623L9.99637 5.21955L7.75165 7.46427L4.5438 4.25642V3.15348L2.19811 0.807787L0 3.0059L2.35346 5.35936H3.44863L6.65648 8.56721L5.99627 9.22742H4.34962L0.233016 13.344C-0.0699047 13.6469 -0.0699047 14.1363 0.233016 14.4392L1.87966 16.0858C2.18258 16.3888 2.67191 16.3888 2.97483 16.0858L7.09144 11.9692V10.3226L11.0915 6.32249L11.9149 7.13804Z" fill="white"/>
</svg>
