<svg width="14" height="14" viewBox="0 0 14 14" fill="none" xmlns="http://www.w3.org/2000/svg">
<path d="M0 1.55556V12.4444C0 13.3 0.692222 14 1.55556 14H12.4444C13.3 14 14 13.3 14 12.4444V1.55556C14 0.7 13.3 0 12.4444 0H1.55556C0.692222 0 0 0.7 0 1.55556ZM9.33333 4.66667C9.33333 5.95778 8.29111 7 7 7C5.70889 7 4.66667 5.95778 4.66667 4.66667C4.66667 3.37556 5.70889 2.33333 7 2.33333C8.29111 2.33333 9.33333 3.37556 9.33333 4.66667ZM2.33333 10.8889C2.33333 9.33333 5.44444 8.47778 7 8.47778C8.55556 8.47778 11.6667 9.33333 11.6667 10.8889V11.6667H2.33333V10.8889Z" fill="white"/>
</svg>
