<svg width="20" height="20" viewBox="0 0 20 20" fill="none" xmlns="http://www.w3.org/2000/svg">
    <path d="M2.5 9.83333C2.5 10.3856 2.94772 10.8333 3.5 10.8333H8.16667C8.71895 10.8333 9.16667 10.3856 9.16667 9.83333V3.5C9.16667 2.94771 8.71895 2.5 8.16667 2.5H3.5C2.94771 2.5 2.5 2.94772 2.5 3.5V9.83333ZM2.5 16.5C2.5 17.0523 2.94772 17.5 3.5 17.5H8.16667C8.71895 17.5 9.16667 17.0523 9.16667 16.5V13.5C9.16667 12.9477 8.71895 12.5 8.16667 12.5H3.5C2.94771 12.5 2.5 12.9477 2.5 13.5V16.5ZM10.8333 16.5C10.8333 17.0523 11.281 17.5 11.8333 17.5H16.5C17.0523 17.5 17.5 17.0523 17.5 16.5V10.1667C17.5 9.61438 17.0523 9.16667 16.5 9.16667H11.8333C11.281 9.16667 10.8333 9.61438 10.8333 10.1667V16.5ZM11.8333 2.5C11.281 2.5 10.8333 2.94772 10.8333 3.5V6.5C10.8333 7.05228 11.281 7.5 11.8333 7.5H16.5C17.0523 7.5 17.5 7.05228 17.5 6.5V3.5C17.5 2.94772 17.0523 2.5 16.5 2.5H11.8333Z" fill="currentColor"/>
</svg>