<svg width="3" height="13" viewBox="0 0 3 13" fill="none" xmlns="http://www.w3.org/2000/svg">
<path d="M1.5 3.17859C2.325 3.17859 3 2.50359 3 1.67859C3 0.853589 2.325 0.178589 1.5 0.178589C0.675 0.178589 0 0.853589 0 1.67859C0 2.50359 0.675 3.17859 1.5 3.17859ZM1.5 4.67859C0.675 4.67859 0 5.35359 0 6.17859C0 7.00359 0.675 7.67859 1.5 7.67859C2.325 7.67859 3 7.00359 3 6.17859C3 5.35359 2.325 4.67859 1.5 4.67859ZM1.5 9.17859C0.675 9.17859 0 9.85359 0 10.6786C0 11.5036 0.675 12.1786 1.5 12.1786C2.325 12.1786 3 11.5036 3 10.6786C3 9.85359 2.325 9.17859 1.5 9.17859Z" fill="#90A0B7"/>
</svg>
