<svg width="29" height="29" viewBox="0 0 29 29" fill="none" xmlns="http://www.w3.org/2000/svg">
    <g clip-path="url(#clip0_140_4772)">
        <path d="M26.5837 6.25913L12.7966 20.0583L7.67324 14.935L9.37699 13.2312L12.7966 16.6508L24.8799 4.56746L26.5837 6.25913ZM14.5003 24.1666C9.17158 24.1666 4.83366 19.8287 4.83366 14.5C4.83366 9.17121 9.17158 4.83329 14.5003 4.83329C16.3974 4.83329 18.1737 5.38913 19.672 6.34371L21.4241 4.59163C19.4545 3.22621 17.0741 2.41663 14.5003 2.41663C7.83033 2.41663 2.41699 7.82996 2.41699 14.5C2.41699 21.17 7.83033 26.5833 14.5003 26.5833C16.5907 26.5833 18.5603 26.0516 20.2762 25.1091L18.4637 23.2966C17.2553 23.8525 15.9141 24.1666 14.5003 24.1666ZM22.9587 18.125H19.3337V20.5416H22.9587V24.1666H25.3753V20.5416H29.0003V18.125H25.3753V14.5H22.9587V18.125Z" fill="#334D6E"/>
    </g>
    <defs>
        <clipPath id="clip0_140_4772">
            <rect width="29" height="29" fill="white"/>
        </clipPath>
    </defs>
</svg>