<svg width="13" height="14" viewBox="0 0 13 14" fill="none" xmlns="http://www.w3.org/2000/svg">
<path d="M3.84978 2.90484C3.72465 2.88672 3.59702 2.91161 3.48815 2.97536H3.47887C3.22611 3.12217 2.99841 3.30772 2.80424 3.52511C2.64288 3.70997 2.55534 3.89702 2.53235 4.07705C2.51865 4.18438 2.52793 4.2917 2.5602 4.3942L2.5717 4.40121C2.7534 4.93037 2.9908 5.43938 3.28081 5.91861C3.65439 6.59187 4.11413 7.21452 4.64864 7.77111L4.66455 7.79389L4.68975 7.81229L4.70566 7.83069L4.72423 7.84646C5.288 8.37763 5.91791 8.8353 6.59869 9.20835C7.37677 9.628 7.84892 9.82644 8.1323 9.90879V9.91317C8.21541 9.93814 8.29101 9.94953 8.36705 9.94953C8.60856 9.932 8.83719 9.83484 9.01648 9.67356C9.23488 9.48111 9.42006 9.25457 9.56467 9.00291V8.99853C9.70039 8.74533 9.65441 8.50572 9.45857 8.34364C9.06635 8.00394 8.64222 7.70221 8.19198 7.44258C7.89048 7.2805 7.58411 7.37862 7.45988 7.54289L7.19507 7.87362C7.05935 8.03789 6.81266 8.01511 6.81266 8.01511L6.80559 8.01949C4.96605 7.55384 4.47534 5.70835 4.47534 5.70835C4.47534 5.70835 4.45235 5.45734 4.62255 5.32943L4.95412 5.06485C5.11283 4.93694 5.22335 4.63381 5.05315 4.33463C4.79293 3.88788 4.48909 3.46753 4.14598 3.07962C4.07097 2.98817 3.96574 2.92595 3.8489 2.90396L3.84978 2.90484Z" fill="white"/>
<path d="M6.9584 2.10263C6.77238 2.10263 6.62157 2.25205 6.62157 2.43638C6.62157 2.6207 6.77238 2.77013 6.9584 2.77013C7.81023 2.77013 8.51806 3.04602 9.07721 3.5743C9.36508 3.86359 9.58914 4.20602 9.73625 4.58075C9.88392 4.95689 9.95109 5.35797 9.93385 5.75971C9.92595 5.94387 10.0702 6.09951 10.2561 6.10734C10.4419 6.11517 10.599 5.97223 10.6069 5.78807C10.6281 5.29382 10.5454 4.8007 10.3641 4.33876C10.1827 3.87684 9.90671 3.4559 9.55299 3.10153L9.54621 3.09511C8.85238 2.43761 7.97286 2.10263 6.9584 2.10263Z" fill="white"/>
<path d="M6.93547 3.20022C6.74945 3.20022 6.59864 3.34964 6.59864 3.53397C6.59864 3.71829 6.74945 3.86772 6.93547 3.86772H6.94648C7.56114 3.91064 8.00842 4.11366 8.32199 4.4469C8.64297 4.7901 8.80927 5.21639 8.79695 5.74383C8.79265 5.9281 8.93992 6.08095 9.12589 6.08521C9.31187 6.08948 9.46612 5.94355 9.47043 5.75928C9.48661 5.06675 9.26184 4.46958 8.8157 3.99276L8.81511 3.99213C8.35929 3.50747 7.73397 3.25107 6.9806 3.20097L6.96933 3.20022H6.93547Z" fill="white"/>
<path d="M6.92273 4.31785C6.73696 4.30816 6.57844 4.44953 6.56866 4.6336C6.55888 4.81767 6.70155 4.97474 6.88732 4.98443C7.16935 4.99914 7.34912 5.08296 7.46216 5.19606C7.57569 5.30965 7.66062 5.49152 7.6761 5.7767C7.68609 5.96076 7.84478 6.10195 8.03053 6.09205C8.21629 6.08215 8.35878 5.92492 8.34879 5.74086C8.32705 5.34034 8.20056 4.98625 7.94082 4.72637C7.6806 4.466 7.32527 4.33885 6.92273 4.31785Z" fill="white"/>
<path fill-rule="evenodd" clip-rule="evenodd" d="M3.24484 0.356093C5.3885 -0.118698 7.61151 -0.118698 9.75516 0.356093L9.98355 0.406678C11.2613 0.68969 12.2698 1.66079 12.5919 2.91828C13.136 5.04283 13.136 7.2684 12.5919 9.39296C12.2698 10.6504 11.2613 11.6215 9.98355 11.9046L9.75516 11.9551C8.40863 12.2534 7.03079 12.3643 5.66097 12.2878L3.87361 13.8725C3.73637 13.9941 3.54318 14.0322 3.36941 13.9717C3.19564 13.9113 3.06881 13.762 3.0384 13.582L2.74279 11.8323C1.59596 11.4792 0.706794 10.5592 0.408095 9.39296C-0.136032 7.2684 -0.136032 5.04283 0.408095 2.91828C0.730156 1.66079 1.73866 0.68969 3.01645 0.406678L3.24484 0.356093ZM9.53473 1.33323C7.53624 0.890593 5.46376 0.890593 3.46527 1.33323L3.23688 1.38382C2.33092 1.58447 1.61588 2.27299 1.38754 3.16456C0.884807 5.12749 0.884807 7.18375 1.38754 9.14667C1.61588 10.0382 2.33092 10.7268 3.23688 10.9274L3.29722 10.9408C3.49789 10.9852 3.65136 11.1457 3.68531 11.3467L3.88355 12.5201L5.14489 11.4019C5.24673 11.3116 5.38115 11.266 5.51747 11.2756C6.86039 11.3698 8.21372 11.2706 9.53473 10.978L9.76312 10.9274C10.6691 10.7268 11.3841 10.0382 11.6125 9.14668C12.1152 7.18375 12.1152 5.12749 11.6125 3.16456C11.3841 2.27299 10.6691 1.58447 9.76312 1.38382L9.53473 1.33323Z" fill="white"/>
</svg>
