<svg width="13" height="11" viewBox="0 0 13 11" fill="none" xmlns="http://www.w3.org/2000/svg">
<path fill-rule="evenodd" clip-rule="evenodd" d="M2.79933 6.66285C2.82731 6.67196 2.85554 6.67844 2.88375 6.68241C2.91451 6.75239 2.95425 6.84293 3.00062 6.94879C3.11377 7.20717 3.26624 7.55661 3.42362 7.92117C3.74457 8.66462 4.06832 9.43098 4.13982 9.65034C4.22833 9.92152 4.32189 10.1059 4.42403 10.2317C4.47685 10.2968 4.53793 10.3537 4.6094 10.3967C4.64537 10.4184 4.68338 10.4361 4.72305 10.4494C4.7248 10.4499 4.72654 10.4505 4.72829 10.4511C4.93279 10.5258 5.11924 10.4947 5.23597 10.4566C5.29843 10.4363 5.34897 10.4116 5.38478 10.3917C5.40305 10.3816 5.41847 10.3721 5.43078 10.3641L5.43368 10.3622L7.23974 9.27177L9.32588 10.8202C9.35668 10.843 9.39023 10.8622 9.4258 10.8772C9.67642 10.9831 9.91911 11.02 10.1474 10.9898C10.3753 10.9597 10.5563 10.867 10.691 10.7627C10.8229 10.6605 10.9123 10.5461 10.968 10.461C10.9964 10.4176 11.0178 10.3792 11.0328 10.3498C11.0404 10.335 11.0465 10.3223 11.0512 10.312L11.0572 10.2986L11.0595 10.2933L11.0604 10.291L11.0609 10.29L11.0613 10.289C11.0722 10.2625 11.0806 10.235 11.0864 10.207L12.9908 0.911141C12.9969 0.881411 13 0.851176 13 0.820867C13 0.548644 12.8941 0.289791 12.6449 0.132714C12.432 -0.00153568 12.1948 -0.00731434 12.0449 0.00370111C11.8832 0.0155836 11.7339 0.0542304 11.6337 0.0851121C11.5815 0.101183 11.5378 0.11669 11.5062 0.128519C11.4904 0.134465 11.4774 0.139566 11.4677 0.143456L11.4605 0.146417L0.779797 4.20276L0.778414 4.20324C0.771606 4.20564 0.762868 4.2088 0.752483 4.21271C0.731801 4.2205 0.704091 4.23149 0.671723 4.24569C0.608595 4.27339 0.520038 4.31668 0.429162 4.37693C0.28398 4.47318 -0.0499098 4.7368 0.00631322 5.17191C0.0511664 5.51903 0.2968 5.73221 0.446455 5.83473C0.52863 5.89102 0.606698 5.93128 0.663553 5.95748C0.689929 5.96964 0.744692 5.99117 0.768454 6.00052L0.77445 6.00288L2.79933 6.66285ZM11.8343 1.00092L11.8328 1.00155C11.8274 1.00379 11.8221 1.00594 11.8167 1.00799L1.12305 5.06925C1.11747 5.07137 1.11185 5.07339 1.10618 5.07531L1.10023 5.07749C1.09339 5.08007 1.08187 5.0846 1.06742 5.09094C1.05922 5.09454 1.05066 5.09846 1.04194 5.10267C1.05393 5.10921 1.06539 5.11488 1.07558 5.11958C1.08537 5.12409 1.09283 5.12717 1.09692 5.1288L3.10517 5.78334C3.14193 5.79532 3.17619 5.8112 3.20765 5.83033L9.83878 2.07222L9.84497 2.06867C9.84983 2.06591 9.85616 2.06236 9.86376 2.0582C9.87886 2.04994 9.89959 2.03894 9.92425 2.02679C9.97028 2.00411 10.0439 1.97045 10.1269 1.94563C10.1846 1.92835 10.3549 1.87966 10.539 1.93683C10.6526 1.97212 10.7703 2.04797 10.8468 2.17647C10.8848 2.24031 10.9051 2.30444 10.9149 2.36315C10.9409 2.45563 10.9368 2.54695 10.9164 2.62579C10.8725 2.79562 10.7492 2.92809 10.6371 3.02941C10.541 3.11628 9.29782 4.27682 8.07142 5.42245C7.45983 5.99376 6.85447 6.55943 6.40201 6.98228L6.10483 7.26004L9.8572 10.0452C9.94326 10.075 9.99413 10.0735 10.0177 10.0704C10.0457 10.0667 10.0687 10.0562 10.0921 10.038C10.1183 10.0177 10.1413 9.99032 10.1584 9.96415L10.1591 9.96308L12.0062 0.947196C11.9788 0.953575 11.9511 0.96117 11.9244 0.969403C11.8941 0.978727 11.8692 0.987607 11.8526 0.993815C11.8444 0.996888 11.8385 0.999219 11.8353 1.00051L11.8343 1.00092ZM6.4272 8.66867L5.67858 8.11301L5.49718 9.23015L6.4272 8.66867ZM4.99181 7.01041L5.73628 6.31461C6.18877 5.89173 6.79418 5.32601 7.40584 4.75463L8.0273 4.17417L3.86076 6.53551L3.88312 6.58654C3.99668 6.84583 4.14983 7.19682 4.30804 7.56331C4.42634 7.83735 4.55005 8.1259 4.66273 8.39304L4.8436 7.27918C4.86104 7.17178 4.91523 7.07882 4.99181 7.01041Z" fill="white"/>
</svg>
