<svg width="25" height="23" viewBox="0 0 25 23" fill="none" xmlns="http://www.w3.org/2000/svg">
    <path d="M3.26087 3.28571V0H5.43478V3.28571H8.69565V5.47619H5.43478V8.7619H3.26087V5.47619H0V3.28571H3.26087ZM6.52174 9.85714V6.57143H9.78261V3.28571H17.3913L19.3804 5.47619H22.8261C24.0217 5.47619 25 6.4619 25 7.66667V20.8095C25 22.0143 24.0217 23 22.8261 23H5.43478C4.23913 23 3.26087 22.0143 3.26087 20.8095V9.85714H6.52174ZM14.1304 19.7143C17.1304 19.7143 19.5652 17.261 19.5652 14.2381C19.5652 11.2152 17.1304 8.7619 14.1304 8.7619C11.1304 8.7619 8.69565 11.2152 8.69565 14.2381C8.69565 17.261 11.1304 19.7143 14.1304 19.7143ZM10.6522 14.2381C10.6522 16.1767 12.2065 17.7429 14.1304 17.7429C16.0543 17.7429 17.6087 16.1767 17.6087 14.2381C17.6087 12.2995 16.0543 10.7333 14.1304 10.7333C12.2065 10.7333 10.6522 12.2995 10.6522 14.2381Z" fill="#334D6E"/>
</svg>