<svg width="13" height="13" viewBox="0 0 13 13" fill="none" xmlns="http://www.w3.org/2000/svg">
<path d="M4.43987 3.38783C4.55929 3.39104 4.6917 3.39753 4.81767 3.67825C4.9012 3.86513 5.04192 4.20916 5.15655 4.48942C5.24575 4.70749 5.31915 4.88695 5.33751 4.92368C5.37949 5.00756 5.40532 5.10434 5.35043 5.21725C5.34396 5.23057 5.33785 5.24331 5.33196 5.25557C5.28793 5.34731 5.25659 5.4126 5.18255 5.49797C5.1521 5.53306 5.12038 5.57153 5.08878 5.60987C5.03321 5.67729 4.97799 5.74427 4.93066 5.7916C4.84672 5.87542 4.7595 5.96584 4.85637 6.1336C4.95328 6.30135 5.29233 6.8531 5.79283 7.29836C6.3309 7.77928 6.7988 7.98195 7.03531 8.0844C7.08123 8.10429 7.11843 8.1204 7.14573 8.13404C7.31367 8.21792 7.41375 8.20501 7.51061 8.0921C7.60753 7.97914 7.93039 7.60163 8.04344 7.43387C8.15322 7.26612 8.26621 7.29194 8.42124 7.35C8.5762 7.40806 9.40283 7.8146 9.57071 7.89847C9.6039 7.91506 9.63495 7.93001 9.66372 7.94386C9.78054 8.0001 9.85995 8.03833 9.89363 8.09532C9.9356 8.16628 9.9356 8.50185 9.79676 8.89548C9.65471 9.28911 8.97014 9.66662 8.66015 9.69565C8.6308 9.69843 8.60159 9.70197 8.57153 9.70563C8.28745 9.74012 7.92683 9.78392 6.64202 9.2762C5.05886 8.6512 4.0138 7.1005 3.80252 6.78698C3.78583 6.76223 3.77435 6.74519 3.76821 6.73692L3.76463 6.73212C3.66851 6.60299 3.08042 5.81299 3.08042 4.99792C3.08042 4.21808 3.46307 3.81208 3.63761 3.6269C3.64867 3.61516 3.65889 3.60431 3.66813 3.59431C3.8231 3.42656 4.00396 3.38462 4.11696 3.38462C4.23001 3.38462 4.343 3.38462 4.43987 3.38783Z" fill="white"/>
<path fill-rule="evenodd" clip-rule="evenodd" d="M0.0653227 12.668C0.0119171 12.8626 0.188477 13.0422 0.383026 12.9912L3.39044 12.2026C4.33977 12.7188 5.40857 12.9931 6.49679 12.9931H6.5C10.0809 12.9931 13 10.0796 13 6.49818C13 4.76233 12.3251 3.1297 11.0981 1.9036C9.87109 0.677563 8.24041 0 6.49994 0C2.91905 0 4.14043e-07 2.91352 4.14043e-07 6.49497C-0.000406517 7.63431 0.29915 8.7537 0.868597 9.74078L0.0653227 12.668ZM1.81255 10.0019C1.88227 9.74777 1.84744 9.47621 1.71587 9.24815C1.23274 8.41069 0.978772 7.46097 0.979118 6.49497C0.979118 3.46105 3.45515 0.982958 6.49994 0.982958C7.98161 0.982958 9.36392 1.55765 10.4074 2.60029C11.4496 3.64177 12.0209 5.02364 12.0209 6.49818C12.0209 9.53203 9.54486 12.0101 6.5 12.0101H6.49679C5.57216 12.0101 4.66355 11.777 3.85678 11.3383C3.63842 11.2196 3.38328 11.1886 3.143 11.2516L1.33986 11.7244L1.81255 10.0019Z" fill="white"/>
</svg>
