<svg width="29" height="29" viewBox="0 0 29 29" fill="none" xmlns="http://www.w3.org/2000/svg">
<path d="M22.8617 7.26217C22.62 6.54925 21.9433 6.04175 21.1458 6.04175H7.85417C7.05667 6.04175 6.39208 6.54925 6.13833 7.26217L3.625 14.5001V24.1667C3.625 24.8313 4.16875 25.3751 4.83333 25.3751H6.04167C6.70625 25.3751 7.25 24.8313 7.25 24.1667V22.9584H21.75V24.1667C21.75 24.8313 22.2938 25.3751 22.9583 25.3751H24.1667C24.8313 25.3751 25.375 24.8313 25.375 24.1667V14.5001L22.8617 7.26217ZM7.85417 19.3334C6.85125 19.3334 6.04167 18.5238 6.04167 17.5209C6.04167 16.518 6.85125 15.7084 7.85417 15.7084C8.85708 15.7084 9.66667 16.518 9.66667 17.5209C9.66667 18.5238 8.85708 19.3334 7.85417 19.3334ZM21.1458 19.3334C20.1429 19.3334 19.3333 18.5238 19.3333 17.5209C19.3333 16.518 20.1429 15.7084 21.1458 15.7084C22.1488 15.7084 22.9583 16.518 22.9583 17.5209C22.9583 18.5238 22.1488 19.3334 21.1458 19.3334ZM6.04167 13.2917L7.85417 7.85425H21.1458L22.9583 13.2917H6.04167Z" fill="#90A0B7"/>
</svg>
