<svg width="22" height="22" viewBox="0 0 22 22" fill="none" xmlns="http://www.w3.org/2000/svg">
<path d="M22 3.47368V5.78947H18.5263V9.26316H16.2105V5.78947H12.7368V3.47368H16.2105V0H18.5263V3.47368H22ZM18.5263 19.6842H2.31579V3.47368H9.26316V1.15789H2.31579C1.04211 1.15789 0 2.2 0 3.47368V19.6842C0 20.9579 1.04211 22 2.31579 22H18.5263C19.8 22 20.8421 20.9579 20.8421 19.6842V12.7368H18.5263V19.6842ZM13.8947 12.7368V17.3684H16.2105V12.7368H13.8947ZM9.26316 17.3684H11.5789V8.10526H9.26316V17.3684ZM6.94737 17.3684V10.4211H4.63158V17.3684H6.94737Z" fill="#90A0B7"/>
</svg>
