<svg width="24" height="20" viewBox="0 0 24 20" fill="none" xmlns="http://www.w3.org/2000/svg">
<path d="M21.8182 0H2.18182C0.981818 0 0 1 0 2.22222V15.5556C0 16.7778 0.981818 17.7778 2.18182 17.7778H7.63636V20H16.3636V17.7778H21.8182C23.0182 17.7778 23.9891 16.7778 23.9891 15.5556L24 2.22222C24 1 23.0182 0 21.8182 0ZM21.8182 15.5556H2.18182V2.22222H21.8182V15.5556ZM19.6364 5.55556H7.63636V7.77778H19.6364V5.55556ZM19.6364 10H7.63636V12.2222H19.6364V10ZM6.54545 5.55556H4.36364V7.77778H6.54545V5.55556ZM6.54545 10H4.36364V12.2222H6.54545V10Z" fill="#90A0B7"/>
</svg>
