<svg width="26" height="27" viewBox="0 0 26 27" fill="none" xmlns="http://www.w3.org/2000/svg">
<path d="M8 6.75C8 3.79519 10.29 1.5 13 1.5C15.71 1.5 18 3.79519 18 6.75C18 9.70481 15.71 12 13 12C10.29 12 8 9.70481 8 6.75ZM1.5 21.9375C1.5 21.3448 1.77424 20.7284 2.45903 20.072C3.15592 19.4041 4.19018 18.7879 5.44911 18.2642C7.9718 17.2147 11.0258 16.6875 13 16.6875C14.9742 16.6875 18.0282 17.2147 20.5509 18.2642C21.8098 18.7879 22.8441 19.4041 23.541 20.072C24.2258 20.7284 24.5 21.3448 24.5 21.9375V25.5H1.5V21.9375Z" stroke="#90A0B7" stroke-width="3"/>
</svg>
