<svg width="21" height="26" viewBox="0 0 21 26" fill="none" xmlns="http://www.w3.org/2000/svg">
<path d="M18.9 0H2.1V2.16667H18.9V0ZM2.1 26H18.9V23.8333H2.1V26ZM18.9 4.33333H2.1C0.945 4.33333 0 5.30833 0 6.5V19.5C0 20.6917 0.945 21.6667 2.1 21.6667H18.9C20.055 21.6667 21 20.6917 21 19.5V6.5C21 5.30833 20.055 4.33333 18.9 4.33333ZM10.5 7.3125C11.802 7.3125 12.8625 8.40667 12.8625 9.75C12.8625 11.0933 11.802 12.1875 10.5 12.1875C9.198 12.1875 8.1375 11.0933 8.1375 9.75C8.1375 8.40667 9.198 7.3125 10.5 7.3125ZM15.75 18.4167H5.25V16.7917C5.25 14.9825 8.7465 14.0833 10.5 14.0833C12.2535 14.0833 15.75 14.9825 15.75 16.7917V18.4167Z" fill="#90A0B7"/>
</svg>
