<svg width="46" height="39" viewBox="0 0 46 39" fill="none" xmlns="http://www.w3.org/2000/svg">
<path d="M0.00878149 8.06268L8.07156 0H8.52166L0.495959 8.01136H12.6099L13.5719 7.06442V0.000487861H19.4786V21.1023H13.5719V7.53033L0 21.0722V8.50732L0.00878149 8.06268ZM3.45688 0.000487861L0 3.44225V2.52546L2.54 0.000487861H3.45688ZM5.98185 0.000487861V0.256029L0.0150261 6.22286V5.29095L5.30549 0.000487861H5.98185ZM4.83958 0.000487861L0.0150261 4.82504V3.90825L3.92279 0.000487861H4.83958ZM2.07409 0.000487861L0.0150261 2.05955V1.14277L1.14228 0.000487861H2.07409ZM0.67637 0.000487861L0.0150261 0.676858V0.000487861H0.67637ZM5.98185 0.721936V1.63872L0.0150261 7.60555V6.68877L5.98185 0.721936Z" fill="#DB2927"/>
<path d="M25.9272 16.0878V0H34.9711C37.3728 0 39.4268 0.465809 41.1326 1.39704L37.1768 5.35281L37.1622 5.33817L25.9272 16.573V16.0878ZM30.6183 16.073L25.9272 20.7493V19.8375L29.6918 16.0729H30.6183V16.073ZM29.6918 16.073H30.6182L25.9271 20.7493V19.8375L29.6918 16.073ZM29.2213 16.073L25.9272 19.367V18.4406L28.3095 16.073H29.2213ZM28.3095 16.073H29.2213L25.9272 19.367V18.4406L28.3095 16.073ZM27.8389 16.073L25.9271 17.9847V17.0582L26.9124 16.073H27.8389ZM25.9272 17.0582L26.9272 16.073H27.839L25.9272 17.9847V17.0582ZM32.0006 16.073L26.9713 21.1022H26.0449L31.0741 16.073H32.0006ZM32.0006 16.073L26.9713 21.1022H26.0449L31.0741 16.073H32.0006ZM33.3829 16.073L28.3537 21.1022H27.4273L32.4713 16.073H33.3829ZM27.4272 21.1023L32.4712 16.0731H33.3829L28.3537 21.1023H27.4272ZM41.1326 1.39704C42.7404 2.27938 43.9608 3.51972 44.7943 5.11746C45.598 6.64691 46.0001 8.40662 46.0001 10.3967C46.0001 13.5046 45.1079 16.0141 43.3237 17.9259C41.3628 20.0435 38.5786 21.1022 34.971 21.1022H28.824L33.8533 16.073H34.9709C36.7355 16.073 38.0638 15.4799 38.956 14.2936C39.7207 13.284 40.1031 11.9654 40.1031 10.3379C40.1031 9.17129 39.8726 8.16152 39.412 7.30854C38.9021 6.38717 38.157 5.7351 37.1767 5.35271L41.1326 1.39704ZM36.7945 5.2204C36.2453 5.05375 35.6376 4.97042 34.9711 4.97042H31.8388V10.1908L36.7945 5.2204Z" fill="#DB2927"/>
<path d="M0.0873718 36.2423V30.1849L0.510933 29.7613H6.12367C6.58958 29.7613 6.95665 29.6096 7.22507 29.3059C7.47212 29.0238 7.59574 28.6671 7.59574 28.2364C7.59574 27.7987 7.47212 27.4351 7.22507 27.1455C6.94972 26.8279 6.58256 26.6691 6.12367 26.6691H3.60329L6.60021 23.6614C8.04741 23.7533 9.1771 24.2404 9.98899 25.1228C10.7373 25.9419 11.1116 26.9621 11.1116 28.1834C11.1116 29.5037 10.6949 30.5732 9.86195 31.3922C8.97239 32.2606 7.7262 32.7054 6.12367 32.7265H3.88917L0.0873718 38.8475V36.2423ZM0.0873718 29.9095V29.3695L5.80598 23.6509H6.12367H6.34604L0.0873718 29.9095ZM5.53063 23.6509L0.0873718 29.0941V28.5434L4.99047 23.6509H5.53063ZM4.71522 23.6509L0.0873718 28.2787V27.7386L4.17516 23.6509H4.71522ZM3.89971 23.6509L0.0873718 27.4632V26.9126L3.35965 23.6509H3.89971ZM3.0843 23.6509L0.0873718 26.6478V26.0971L2.5337 23.6508H3.0843V23.6509ZM2.26889 23.6509L0.0873718 25.8324V23.6509H2.26889Z" fill="#DB2927"/>
<path d="M20.9349 23.6509L13.543 31.0428V30.3756L20.2783 23.651H20.9349V23.6509ZM13.543 30.0472V29.3801L19.2723 23.651H19.9395L13.543 30.0472ZM18.9439 23.6509L13.543 29.0518V28.3846L18.2767 23.6509H18.9439ZM15.9469 23.6509L13.5429 26.0548V23.6509H15.9469ZM17.9379 23.6509L13.543 28.0457V27.3892L17.2813 23.6509H17.9379ZM16.9424 23.6509L13.543 27.0503V26.3831L16.2859 23.6509H16.9424ZM19.3675 33.955L19.3357 33.9232H17.8426L13.5429 38.8475V31.3816L14.1995 30.7251H17.8425H21.0089C21.5453 30.7251 21.9583 30.5486 22.2479 30.1956C22.509 29.871 22.6398 29.4614 22.6398 28.9671C22.6398 28.4518 22.5021 28.0176 22.2268 27.6645C21.9231 27.2764 21.503 27.0821 20.9665 27.0821H17.8425L21.263 23.6615C23.0279 23.7182 24.4257 24.2688 25.4567 25.3136C26.4027 26.2809 26.8757 27.4704 26.8757 28.8824C26.8757 29.9062 26.6602 30.7605 26.2298 31.4452C25.7214 32.2644 24.8636 32.9385 23.6564 33.4679L27.6065 38.5829V38.8476H22.8835L19.5053 34.1563" fill="#DB2927"/>
<path d="M37.8113 35.3554C37.6135 35.3554 37.423 35.3447 37.2394 35.3235L34.2954 38.2676C34.4505 38.3242 34.6094 38.3771 34.7719 38.4264L37.8325 35.3554H37.8113Z" fill="#DB2927"/>
<path d="M34.7613 33.9893L31.9337 36.8167C32.0396 36.9156 32.1525 37.011 32.2726 37.1027L35.0578 34.3175C34.9449 34.2047 34.8461 34.0951 34.7613 33.9893Z" fill="#DB2927"/>
<path d="M36.4557 35.1435L33.6282 37.9711C33.7694 38.0418 33.9142 38.1087 34.0624 38.1723L36.9641 35.2812C36.7876 35.2459 36.6181 35.2001 36.4557 35.1435Z" fill="#DB2927"/>
<path d="M35.7992 34.8577L33.014 37.6322C33.1481 37.7169 33.2822 37.7947 33.4165 37.8651L36.2229 35.0588C36.0746 34.9953 35.9332 34.9283 35.7992 34.8577Z" fill="#DB2927"/>
<path d="M34.206 29.4673H29.9113C30.2784 27.6389 31.1715 26.2091 32.5906 25.1783C33.9955 24.1547 35.7359 23.6427 37.8115 23.6427C39.972 23.6427 41.7579 24.1793 43.1701 25.2523C43.2331 25.2966 43.2884 25.3454 43.3486 25.3915L43.3501 25.39C43.3599 25.3982 43.3682 25.4063 43.3781 25.4145C45.6668 27.19 45.8812 30.1569 45.8812 31.2464C45.8812 33.6327 45.1328 35.5106 43.6362 36.8802C42.1817 38.2006 40.2402 38.8605 37.8117 38.8605C36.8091 38.8605 35.8771 38.7406 35.016 38.5005L38.1612 35.3446L38.8991 35.2319C38.9076 35.2299 38.9151 35.2259 38.9236 35.2238L39.1697 34.2107C39.3707 34.1206 39.5603 34.0103 39.7363 33.8825L40.7241 34.1719C40.7444 34.1493 40.7631 34.13 40.7846 34.1042L41.4672 32.9221C41.5553 32.6999 41.6299 32.4577 41.6859 32.197L41.0515 31.5912C41.0614 31.4879 41.0668 31.3834 41.0668 31.2776C41.0668 31.1664 41.0611 31.0566 41.0502 30.9485L41.6755 30.3517C41.6111 30.0633 41.5144 29.7668 41.3785 29.4626L40.8059 28.4708C40.7811 28.4362 40.7508 28.4012 40.7248 28.3666L39.7199 28.661C39.5499 28.5392 39.3672 28.4336 39.1747 28.3466L38.9101 27.2832C38.8562 27.2705 38.8035 27.2559 38.7485 27.2453L38.2895 27.182C38.1323 27.1676 37.9783 27.148 37.8122 27.148C36.7382 27.1481 34.7193 27.7629 34.206 29.4673Z" fill="#DB2927"/>
<path d="M35.2274 34.4657L32.4529 37.251C32.5657 37.3428 32.6893 37.431 32.8235 37.5157L35.5981 34.7305C35.471 34.6528 35.3474 34.5647 35.2274 34.4657Z" fill="#DB2927"/>
<path d="M34.1895 33.0361H29.911C30.1934 34.4835 30.8146 35.6907 31.7748 36.6579L34.6236 33.7985C34.4542 33.5657 34.3094 33.3115 34.1895 33.0361Z" fill="#DB2927"/>
<path d="M37.8959 29.7054C38.7499 29.7054 39.4426 30.3976 39.4426 31.2517C39.4426 32.1057 38.7499 32.7981 37.8959 32.7981C37.042 32.7981 36.3493 32.1057 36.3493 31.2517C36.3493 30.3976 37.042 29.7054 37.8959 29.7054Z" fill="#DB2927"/>
</svg>
